<?xml version="1.0" encoding="UTF-8"?> <!-- Generator: Adobe Illustrator 16.0.0, SVG Export Plug-In . SVG Version: 6.00 Build 0) --> <svg xmlns="http://www.w3.org/2000/svg" xmlns:xlink="http://www.w3.org/1999/xlink" version="1.1" id="Layer_1" x="0px" y="0px" width="1000px" height="800px" viewBox="0 0 1000 800" xml:space="preserve"> <g> <g opacity="0.4"> <g> <polygon fill="#FFFFFF" points="486.912,131.591 486.912,134.921 500.646,142.829 500.646,139.499 "></polygon> <polygon fill="#FFFFFF" points="486.912,137.626 486.912,140.956 500.646,148.864 500.646,145.534 "></polygon> <polygon fill="#FFFFFF" points="486.912,143.661 486.912,146.782 500.646,154.689 500.646,151.568 "></polygon> <polygon fill="#FFFFFF" points="590.541,212.537 590.541,209.208 505.849,160.516 505.849,163.637 "></polygon> <polygon fill="#FFFFFF" points="486.912,149.487 486.912,152.817 500.646,160.725 500.646,157.395 "></polygon> <polygon fill="#FFFFFF" points="486.912,155.522 486.912,158.852 500.646,166.758 500.646,163.429 "></polygon> <polygon fill="#FFFFFF" points="590.541,218.572 590.541,215.243 505.849,166.342 505.849,169.672 "></polygon> <polygon fill="#FFFFFF" points="486.912,173.417 486.912,176.747 500.646,184.654 500.646,181.325 "></polygon> <polygon fill="#FFFFFF" points="486.912,179.452 486.912,182.574 500.646,190.48 500.646,187.359 "></polygon> <polygon fill="#FFFFFF" points="486.912,203.174 486.912,206.503 500.646,214.41 500.646,211.082 "></polygon> <polygon fill="#FFFFFF" points="486.912,209.208 486.912,212.537 500.646,220.445 500.646,217.116 "></polygon> <g> <polygon fill="#FFFFFF" points="559.327,250.826 505.849,220.029 505.849,223.358 559.327,254.156 "></polygon> <polygon fill="#FFFFFF" points="562.032,252.491 562.032,255.82 590.541,272.259 590.541,268.93 "></polygon> </g> <g> <polygon fill="#FFFFFF" points="532.692,229.601 505.849,214.203 505.849,217.325 532.692,232.931 "></polygon> <polygon fill="#FFFFFF" points="535.604,231.266 535.604,234.595 590.541,266.225 590.541,262.895 "></polygon> </g> <polygon fill="#FFFFFF" points="583.257,240.838 583.257,244.167 590.541,248.329 590.541,245 "></polygon> <polygon fill="#FFFFFF" points="543.928,212.122 505.849,190.272 505.849,193.602 543.928,215.452 "></polygon> <polygon fill="#FFFFFF" points="528.322,155.522 505.849,142.412 505.849,145.742 528.322,158.644 "></polygon> <g> <polygon fill="#FFFFFF" points="565.152,176.747 531.027,157.187 531.027,160.308 565.152,180.076 "></polygon> </g> <polygon fill="#FFFFFF" points="545.384,171.337 521.454,157.395 521.454,160.725 545.384,174.458 "></polygon> <g> <polygon fill="#FFFFFF" points="570.354,185.695 548.09,172.793 548.09,176.122 570.354,189.024 "></polygon> <polygon fill="#FFFFFF" points="573.269,187.359 573.269,190.689 590.541,200.677 590.541,197.348 "></polygon> </g> <polygon fill="#FFFFFF" points="510.218,156.979 510.218,160.308 528.322,170.712 528.322,167.383 "></polygon> <polygon fill="#FFFFFF" points="583.466,199.22 531.027,169.047 531.027,172.377 583.466,202.55 "></polygon> <polygon fill="#FFFFFF" points="553.5,199.845 519.374,180.076 519.374,183.405 553.5,203.174 "></polygon> <polygon fill="#FFFFFF" points="583.466,217.116 556.413,201.509 556.413,204.838 583.466,220.445 "></polygon> <g> <polygon fill="#FFFFFF" points="580.552,233.347 546.633,213.787 546.633,217.116 580.552,236.676 "></polygon> </g> <polygon fill="#FFFFFF" points="562.032,228.769 562.032,231.89 580.552,242.502 580.552,239.381 "></polygon> <polygon fill="#FFFFFF" points="512.506,200.052 505.849,196.307 505.849,199.429 512.506,203.382 "></polygon> <g> <polygon fill="#FFFFFF" points="524.785,207.128 524.785,210.457 559.327,230.226 559.327,227.104 "></polygon> <polygon fill="#FFFFFF" points="522.08,205.671 515.212,201.718 515.212,204.838 522.08,208.792 "></polygon> </g> <polygon fill="#FFFFFF" points="552.876,229.393 515.212,207.544 515.212,210.873 552.876,232.515 "></polygon> </g> </g> <g opacity="0.4"> <polygon fill="#FFFFFF" points="560.159,77.489 503.143,44.611 503.143,47.524 560.159,80.403 "></polygon> <polygon fill="#FFFFFF" points="503.143,53.143 590.541,103.708 590.541,100.795 503.143,50.229 "></polygon> <polygon fill="#FFFFFF" points="563.905,79.778 563.905,82.69 590.541,98.09 590.541,95.176 "></polygon> <polygon fill="#FFFFFF" points="560.159,88.726 503.143,55.64 503.143,58.553 560.159,91.638 "></polygon> <polygon fill="#FFFFFF" points="503.143,64.38 590.541,114.737 590.541,111.824 503.143,61.466 "></polygon> <polygon fill="#FFFFFF" points="563.905,93.72 590.541,109.118 590.541,106.205 563.905,90.807 "></polygon> <polygon fill="#FFFFFF" points="560.159,107.038 503.143,73.951 503.143,76.865 560.159,109.951 "></polygon> <polygon fill="#FFFFFF" points="503.143,82.69 590.541,133.048 590.541,130.135 503.143,79.778 "></polygon> <polygon fill="#FFFFFF" points="563.905,112.031 590.541,127.43 590.541,124.517 563.905,109.118 "></polygon> <polygon fill="#FFFFFF" points="560.159,118.066 503.143,85.188 503.143,88.101 560.159,120.979 "></polygon> <polygon fill="#FFFFFF" points="503.143,93.72 590.541,144.285 590.541,141.372 503.143,90.807 "></polygon> <polygon fill="#FFFFFF" points="563.905,123.061 590.541,138.458 590.541,135.546 563.905,120.147 "></polygon> <polygon fill="#FFFFFF" points="560.159,136.378 503.143,103.5 503.143,106.413 560.159,139.291 "></polygon> <polygon fill="#FFFFFF" points="503.143,112.031 590.541,162.597 590.541,159.683 503.143,109.118 "></polygon> <polygon fill="#FFFFFF" points="563.905,141.372 590.541,156.771 590.541,153.857 563.905,138.458 "></polygon> <polygon fill="#FFFFFF" points="560.159,147.407 503.143,114.529 503.143,117.441 560.159,150.319 "></polygon> <polygon fill="#FFFFFF" points="503.143,123.061 590.541,173.625 590.541,170.712 503.143,120.147 "></polygon> <polygon fill="#FFFFFF" points="563.905,152.608 590.541,168.007 590.541,165.094 563.905,149.695 "></polygon> </g> <path opacity="0.2" fill="#FFFFFF" d="M406.589,119.106L364.14,94.553 c-2.08-1.25-4.579,0.207-4.579,2.705v50.981c0,2.497,1.25,4.786,3.538,6.035l42.452,24.555c2.08,1.249,4.785-0.208,4.785-2.706 v-50.773C410.129,122.645,408.879,120.355,406.589,119.106z"></path> <g> <g> <g> <path fill="#F3767A" d="M387.655,161.972l-55.56-32.045c-1.665-1.041-3.746-1.041-5.617,0.208l0,0l-12.278,7.075l5.618,7.699 l2.082,2.498v55.143c0,3.329,1.665,6.243,4.579,7.907l41.617,24.138l0.415,2.29l8.532,11.861l13.109-7.7l0,0l0,0l0,0 c1.249-0.832,2.082-2.081,2.082-3.538v-67.212C392.439,166.758,390.775,163.637,387.655,161.972z"></path> <path fill="#ED5762" d="M374.752,169.672l-56.391-32.462c-2.705-1.665-6.243,0.416-6.243,3.537v67.42 c0,3.33,1.665,6.242,4.576,7.907l56.393,32.671c2.914,1.664,6.451-0.417,6.451-3.746v-67.212 C379.539,174.458,377.666,171.337,374.752,169.672z"></path> </g> </g> <g> <path fill="#BBCEE1" d="M377.25,248.746L377.25,248.746L377.25,248.746L377.25,248.746z"></path> <path fill="#D93A5B" d="M379.539,245.208v-67.213c0-1.041-0.208-2.289-0.624-3.329l13.109-7.491 c0.415,1.041,0.624,2.081,0.624,3.121v67.212c0,1.666-0.833,2.914-2.08,3.538l0,0l0,0l0,0l-12.902,7.7 C378.499,248.121,379.539,246.665,379.539,245.208z"></path> </g> </g> <g> <path fill="#FFFFFF" d="M325.437,169.464l-6.868-3.954v24.763l4.579,2.705v-8.739l1.873,1.041 c2.705,1.457,4.787,2.081,6.242,1.457c1.456-0.624,2.082-2.289,2.082-4.786c0-2.497-0.625-4.786-2.082-6.866 C330.015,172.793,328.142,170.92,325.437,169.464z M327.934,181.533c-0.624,0.208-1.665,0-3.122-0.833l-1.457-0.833v-7.284 l2.082,1.25c1.248,0.623,2.08,1.456,2.706,2.496c0.623,0.833,0.832,2.081,0.832,3.33 C328.974,180.492,328.557,181.325,327.934,181.533z"></path> <polygon fill="#FFFFFF" points="349.367,192.977 340.834,187.984 340.834,178.412 336.255,175.706 336.255,200.469 340.834,202.966 340.834,192.354 349.367,197.348 349.367,207.96 353.944,210.457 353.944,185.902 349.367,183.197 "></polygon> <path fill="#FFFFFF" d="M371.008,197.556c-1.458-2.081-3.331-3.954-6.036-5.41l-6.866-3.954v24.763l4.578,2.704v-8.739 l1.873,1.041c2.706,1.457,4.785,2.081,6.243,1.457c1.456-0.625,2.08-2.082,2.288-4.787 C373.088,201.925,372.255,199.636,371.008,197.556z M367.262,204.214c-0.625,0.209-1.665,0-3.122-0.832l-1.457-0.833v-7.284 l2.08,1.249c1.25,0.625,2.082,1.457,2.706,2.498c0.625,0.833,0.832,2.081,0.832,3.329 C368.301,203.382,368.095,204.007,367.262,204.214z"></path> </g> <g opacity="0.4"> <g> <polygon fill="#FFFFFF" points="256.144,164.469 256.144,167.799 269.876,175.706 269.876,172.377 "></polygon> <polygon fill="#FFFFFF" points="256.144,170.504 256.144,173.834 269.876,181.741 269.876,178.412 "></polygon> <polygon fill="#FFFFFF" points="256.144,176.539 256.144,179.66 269.876,187.568 269.876,184.446 "></polygon> <polygon fill="#FFFFFF" points="359.771,245.416 359.771,242.086 275.078,193.395 275.078,196.515 "></polygon> <polygon fill="#FFFFFF" points="256.144,182.365 256.144,185.695 269.876,193.602 269.876,190.272 "></polygon> <polygon fill="#FFFFFF" points="256.144,188.4 256.144,191.729 269.876,199.636 269.876,196.307 "></polygon> <polygon fill="#FFFFFF" points="359.771,251.45 359.771,248.121 275.078,199.22 275.078,202.55 "></polygon> <polygon fill="#FFFFFF" points="256.144,206.295 256.144,209.625 269.876,217.532 269.876,214.203 "></polygon> <polygon fill="#FFFFFF" points="256.144,212.33 256.144,215.452 269.876,223.358 269.876,220.237 "></polygon> <polygon fill="#FFFFFF" points="256.144,236.052 256.144,239.381 269.876,247.288 269.876,244.167 "></polygon> <polygon fill="#FFFFFF" points="256.144,242.086 256.144,245.416 269.876,253.323 269.876,249.993 "></polygon> <g> <polygon fill="#FFFFFF" points="328.349,283.912 275.078,252.907 275.078,256.236 328.349,287.033 "></polygon> <polygon fill="#FFFFFF" points="331.262,285.369 331.262,288.698 359.771,305.137 359.771,301.808 "></polygon> </g> <g> <polygon fill="#FFFFFF" points="301.922,262.479 275.078,247.081 275.078,250.202 301.922,265.809 "></polygon> <polygon fill="#FFFFFF" points="304.627,264.144 304.627,267.473 359.771,299.103 359.771,295.981 "></polygon> </g> <polygon fill="#FFFFFF" points="352.487,273.716 352.487,277.045 359.771,281.207 359.771,278.085 "></polygon> <polygon fill="#FFFFFF" points="312.951,245.208 275.078,223.151 275.078,226.479 312.951,248.329 "></polygon> <polygon fill="#FFFFFF" points="297.344,188.4 275.078,175.499 275.078,178.62 297.344,191.729 "></polygon> <g> <polygon fill="#FFFFFF" points="334.176,209.625 300.257,190.064 300.257,193.186 334.176,212.955 "></polygon> </g> <polygon fill="#FFFFFF" points="314.407,204.214 290.478,190.272 290.478,193.602 314.407,207.335 "></polygon> <g> <polygon fill="#FFFFFF" points="339.586,218.572 317.321,205.879 317.321,209 339.586,221.902 "></polygon> <polygon fill="#FFFFFF" points="342.292,220.237 342.292,223.567 359.771,233.555 359.771,230.226 "></polygon> </g> <polygon fill="#FFFFFF" points="279.448,189.855 279.448,193.186 297.344,203.591 297.344,200.261 "></polygon> <polygon fill="#FFFFFF" points="352.695,232.098 300.257,201.925 300.257,205.255 352.695,235.428 "></polygon> <polygon fill="#FFFFFF" points="322.731,232.723 288.396,212.955 288.396,216.283 322.731,236.052 "></polygon> <polygon fill="#FFFFFF" points="352.695,249.993 325.437,234.387 325.437,237.716 352.695,253.323 "></polygon> <g> <polygon fill="#FFFFFF" points="349.575,266.225 315.863,246.665 315.863,249.993 349.575,269.554 "></polygon> </g> <polygon fill="#FFFFFF" points="331.262,261.646 331.262,264.768 349.575,275.38 349.575,272.259 "></polygon> <polygon fill="#FFFFFF" points="281.53,232.931 275.078,229.185 275.078,232.306 281.53,236.26 "></polygon> <g> <polygon fill="#FFFFFF" points="294.015,240.005 294.015,243.335 328.349,263.311 328.349,259.982 "></polygon> <polygon fill="#FFFFFF" points="291.101,238.549 284.443,234.595 284.443,237.924 291.101,241.67 "></polygon> </g> <polygon fill="#FFFFFF" points="322.106,262.271 284.443,240.629 284.443,243.751 322.106,265.6 "></polygon> </g> </g> <path opacity="0.2" fill="#FFFFFF" d="M665.451,206.919l-42.45-24.555 c-2.081-1.249-4.578,0.209-4.578,2.706v50.982c0,2.497,1.249,4.786,3.537,6.034l42.452,24.555c2.079,1.248,4.785-0.208,4.785-2.706 v-50.773C668.988,210.666,667.532,208.376,665.451,206.919z"></path> <path opacity="0.2" fill="#FFFFFF" d="M723.508,108.702L680.85,84.147 c-2.079-1.249-4.577,0.208-4.577,2.706v50.981c0,2.498,1.249,4.787,3.537,6.035l42.45,24.555c2.08,1.249,4.785-0.208,4.785-2.706 v-50.774C727.045,112.24,725.589,109.951,723.508,108.702z"></path> <path opacity="0.2" fill="#FFFFFF" d="M854.604,374.638l-42.449-24.555 c-2.082-1.249-4.578,0.208-4.578,2.706v50.981c0,2.498,1.247,4.786,3.538,6.035l42.449,24.554c2.081,1.248,4.786-0.208,4.786-2.704 v-50.774C858.35,378.384,856.892,376.095,854.604,374.638z"></path> <path opacity="0.2" fill="#FFFFFF" d="M484.624,249.577l-42.452-24.555 c-2.08-1.248-4.576,0.209-4.576,2.706v50.982c0,2.497,1.247,4.786,3.538,6.034l42.449,24.555c2.082,1.249,4.787-0.208,4.787-2.706 V255.82C488.161,253.115,486.912,250.826,484.624,249.577z"></path> <path fill="#943F32" d="M324.604,667.627c-11.238,0.206-7.492-8.532-7.492-8.532c-16.646-5.203-24.97-2.288-24.97-2.288 c-4.162,14.772-2.497,23.721-2.706,27.259c0,1.663,1.25,2.912,2.914,3.537c8.948,3.329,17.27,5.618,33.918,3.953 c12.277-1.249,25.386-12.693,22.472-24.346C346.87,659.927,336.049,667.627,324.604,667.627z"></path> <path fill="#2075BC" d="M319.817,561.708c-3.329-4.368-8.948-7.905-18.311-5.409L200.583,575.86l3.746,26.011 c0,0,15.399,20.393,42.45,12.692c27.052-7.698,44.531-20.394,44.531-20.394l-3.329,71.583c0,0,15.814,4.994,29.964-3.537 c2.289-1.458,4.579-70.334,5.203-88.022C323.355,568.785,322.731,565.454,319.817,561.708z"></path> <path fill="#9E4E37" d="M373.088,688.435c-11.653,0.208-7.907-8.74-7.907-8.74c-17.479-5.201-26.011-2.288-26.011-2.288 c-4.37,15.397-2.497,24.555-2.706,28.301c0,1.872,1.25,2.913,2.915,3.537c9.362,3.537,17.896,5.824,35.374,4.161 c12.902-1.248,26.428-13.109,23.306-25.387C396.186,680.319,384.949,688.226,373.088,688.435z"></path> <g> <polygon fill="#BBCEE1" points="258.432,659.927 171.66,609.985 171.66,622.055 258.432,671.996 "></polygon> <polygon fill="#FFFFFF" points="250.525,564.623 171.66,609.985 258.432,659.927 337.296,614.563 "></polygon> <polygon fill="#A7BCCE" points="337.296,614.563 258.432,659.927 258.432,671.996 337.296,626.425 "></polygon> </g> <path fill="#2C88C6" d="M368.095,578.148c-3.538-4.371-9.365-8.323-19.146-5.62l-104.875,20.186l3.954,26.845 c0,0,16.022,21.225,44.114,13.108c28.091-8.115,46.404-21.224,46.404-21.224l-3.538,74.285c0,0,16.438,4.995,31.005-3.746 c2.497-1.455,4.787-73.036,5.411-91.558C371.839,585.639,371.215,582.311,368.095,578.148z"></path> <g> <path fill="#E8EBF5" d="M180.815,426.659l178.956-103.835c7.492-4.37,16.855-4.37,24.554,0l281.752,162.933 c7.283,4.163,7.283,14.566,0,18.728L491.073,606.032c-8.948,5.202-20.184,5.202-29.132,0L180.815,443.517 C174.363,439.771,174.363,430.405,180.815,426.659z"></path> <path fill="#A7BCCE" d="M180.815,443.517L461.941,606.24c8.948,5.203,20.184,5.203,29.132,0l175.003-101.547 c3.537-2.081,5.41-5.619,5.41-9.363v13.316c0,0,0,0,0,0.209v0.208l0,0c0,3.537-1.873,7.075-5.41,9.156L491.073,619.766 c-8.948,5.202-20.184,5.202-29.132,0L180.815,456.832c-3.329-1.873-4.786-5.201-4.786-8.531l0,0v-13.317 C176.029,438.314,177.694,441.644,180.815,443.517z"></path> <path fill="#BBCEE1" d="M180.815,443.517L461.941,606.24c4.163,2.288,8.74,3.537,13.318,3.745v13.525 c-4.578-0.208-9.155-1.456-13.318-3.745L180.815,456.832c-3.329-1.873-4.786-5.201-4.786-8.531l0,0v-13.317 C176.029,438.314,177.694,441.644,180.815,443.517z"></path> </g> <g> <g> <g> <path fill="#0F4564" d="M312.951,464.323l30.381-17.479c1.456-0.832,3.121-0.832,4.577,0l93.849,54.311 c1.248,0.833,1.456,2.706,0,3.538l-29.549,17.063c-1.665,1.039-3.746,1.039-5.411,0l-93.64-54.104 C311.702,466.614,311.702,464.949,312.951,464.323z"></path> <path fill="#0B3B56" d="M312.951,467.444l93.638,54.104c1.667,1.04,3.746,1.04,5.411,0l29.549-17.063 c0.624-0.415,1.041-1.04,1.041-1.664v3.538l0,0l0,0l0,0c0,0.623-0.417,1.249-1.041,1.663L412,525.086 c-1.665,1.039-3.744,1.039-5.411,0l-93.638-54.104c-0.625-0.415-0.832-1.039-0.832-1.664l0,0v-3.537 C312.119,466.405,312.326,467.029,312.951,467.444z"></path> </g> <g> <polygon fill="#215F78" points="342.916,451.631 346.87,449.342 351.24,451.838 347.285,454.129 "></polygon> <polygon fill="#215F78" points="348.326,454.753 352.278,452.464 356.441,454.959 352.695,457.249 "></polygon> <polygon fill="#215F78" points="353.736,457.875 357.688,455.584 361.852,458.081 358.106,460.369 "></polygon> <polygon fill="#215F78" points="359.146,460.995 362.893,458.705 367.262,461.203 363.516,463.285 "></polygon> <polygon fill="#215F78" points="364.557,463.907 368.301,461.827 372.673,464.323 368.927,466.405 "></polygon> <polygon fill="#215F78" points="369.967,467.029 373.712,464.949 378.083,467.444 374.337,469.526 "></polygon> <polygon fill="#215F78" points="375.378,470.151 379.122,468.069 383.492,470.566 379.748,472.648 "></polygon> <polygon fill="#215F78" points="380.787,473.271 384.532,471.19 388.902,473.688 385.158,475.771 "></polygon> <polygon fill="#215F78" points="386.197,476.393 389.943,474.313 394.313,476.601 390.36,478.891 "></polygon> <polygon fill="#215F78" points="391.608,479.515 395.353,477.227 399.723,479.723 395.771,482.011 "></polygon> <polygon fill="#215F78" points="396.81,482.637 400.764,480.347 405.134,482.845 401.181,485.134 "></polygon> <polygon fill="#215F78" points="402.22,485.757 406.174,483.467 410.335,485.966 406.589,488.254 "></polygon> <polygon fill="#215F78" points="411.584,486.589 415.746,489.086 412,491.376 407.63,488.878 "></polygon> <polygon fill="#215F78" points="342.5,456.832 338.128,454.544 341.875,452.256 346.245,454.753 "></polygon> <polygon fill="#215F78" points="351.655,457.875 347.909,459.954 343.539,457.457 347.285,455.376 "></polygon> <polygon fill="#215F78" points="357.065,460.995 353.113,463.076 348.949,460.577 352.695,458.497 "></polygon> <polygon fill="#215F78" points="362.476,464.115 358.523,466.196 354.36,463.7 358.106,461.619 "></polygon> <polygon fill="#215F78" points="367.678,467.237 363.932,469.317 359.562,466.822 363.516,464.741 "></polygon> <polygon fill="#215F78" points="373.088,470.151 369.342,472.439 364.972,469.942 368.927,467.652 "></polygon> <polygon fill="#215F78" points="378.499,473.271 374.752,475.562 370.383,473.063 374.337,470.775 "></polygon> <polygon fill="#215F78" points="383.909,476.393 380.163,478.682 375.793,476.186 379.539,473.897 "></polygon> <polygon fill="#215F78" points="389.319,479.515 385.573,481.803 381.204,479.308 384.949,477.018 "></polygon> <polygon fill="#215F78" points="394.73,482.637 390.984,484.925 386.614,482.428 390.36,480.139 "></polygon> <polygon fill="#215F78" points="400.14,485.757 396.395,488.047 392.024,485.549 395.771,483.261 "></polygon> <polygon fill="#215F78" points="405.551,488.878 401.805,490.959 397.435,488.671 401.181,486.383 "></polygon> <polygon fill="#215F78" points="406.589,489.503 410.961,492 407.006,494.079 402.845,491.584 "></polygon> <polygon fill="#215F78" points="337.505,459.748 333.135,457.249 336.881,455.168 341.25,457.666 "></polygon> <polygon fill="#215F78" points="346.661,460.786 342.916,462.868 338.546,460.369 342.292,458.29 "></polygon> <polygon fill="#215F78" points="343.956,463.492 347.702,461.203 352.071,463.7 348.326,465.988 "></polygon> <polygon fill="#215F78" points="357.482,466.822 353.736,469.11 349.367,466.614 353.113,464.323 "></polygon> <polygon fill="#215F78" points="362.893,469.942 359.146,472.232 354.777,469.734 358.523,467.444 "></polygon> <polygon fill="#215F78" points="368.301,473.063 364.557,475.354 360.188,472.854 363.932,470.566 "></polygon> <polygon fill="#215F78" points="373.712,476.186 369.759,478.474 365.598,475.977 369.342,473.688 "></polygon> <polygon fill="#215F78" points="379.122,479.308 375.17,481.596 370.8,479.1 374.752,476.809 "></polygon> <polygon fill="#215F78" points="384.324,482.428 380.58,484.51 376.21,482.011 380.163,479.93 "></polygon> <polygon fill="#215F78" points="389.735,485.549 385.991,487.63 381.621,485.134 385.573,483.052 "></polygon> <polygon fill="#215F78" points="395.145,488.671 391.4,490.751 387.029,488.254 390.775,486.174 "></polygon> <polygon fill="#215F78" points="392.439,491.376 396.186,489.294 400.556,491.793 396.81,493.873 "></polygon> <polygon fill="#215F78" points="401.596,492.415 405.966,494.913 402.22,496.995 397.85,494.497 "></polygon> <polygon fill="#215F78" points="332.511,462.659 328.349,460.163 332.095,457.875 336.464,460.369 "></polygon> <polygon fill="#215F78" points="333.552,463.285 337.505,460.995 341.666,463.492 337.922,465.78 "></polygon> <polygon fill="#215F78" points="338.963,466.405 342.916,464.115 347.076,466.614 343.332,468.902 "></polygon> <polygon fill="#215F78" points="344.372,469.526 348.326,467.237 352.487,469.734 348.741,472.024 "></polygon> <polygon fill="#215F78" points="349.782,472.648 353.528,470.359 357.897,472.854 354.151,474.936 "></polygon> <polygon fill="#215F78" points="355.192,475.562 358.938,473.48 363.308,475.977 359.562,478.059 "></polygon> <polygon fill="#215F78" points="360.603,478.682 364.349,476.601 368.718,479.1 364.972,481.179 "></polygon> <polygon fill="#215F78" points="366.013,481.803 369.759,479.723 374.128,482.22 370.383,484.301 "></polygon> <polygon fill="#215F78" points="371.424,484.925 375.17,482.845 379.539,485.34 375.793,487.422 "></polygon> <polygon fill="#215F78" points="376.834,488.047 380.58,485.757 384.949,488.254 380.995,490.542 "></polygon> <polygon fill="#215F78" points="382.245,491.167 385.991,488.878 390.36,491.376 386.405,493.664 "></polygon> <polygon fill="#215F78" points="387.446,494.288 391.4,492 395.562,494.497 391.816,496.786 "></polygon> <polygon fill="#215F78" points="396.81,495.122 400.972,497.619 397.226,499.907 392.857,497.41 "></polygon> <polygon fill="#215F78" points="327.725,465.573 323.355,463.076 327.101,460.786 331.471,463.285 "></polygon> <polygon fill="#215F78" points="328.765,466.196 332.511,463.907 336.881,466.405 333.135,468.487 "></polygon> <polygon fill="#215F78" points="334.176,469.11 337.922,467.029 342.292,469.526 338.546,471.607 "></polygon> <polygon fill="#215F78" points="339.586,472.232 343.332,470.151 347.702,472.648 343.748,474.728 "></polygon> <polygon fill="#215F78" points="344.997,475.354 348.741,473.271 353.113,475.771 349.158,477.85 "></polygon> <polygon fill="#215F78" points="350.198,478.474 354.151,476.393 358.314,478.891 354.568,480.972 "></polygon> <polygon fill="#215F78" points="355.609,481.596 359.562,479.308 363.725,481.803 359.979,484.093 "></polygon> <polygon fill="#215F78" points="361.02,484.717 364.764,482.428 369.135,484.925 365.389,487.213 "></polygon> <polygon fill="#215F78" points="366.43,487.839 370.174,485.549 374.546,488.047 370.8,490.335 "></polygon> <polygon fill="#215F78" points="371.839,490.959 375.584,488.671 379.954,491.167 376.21,493.457 "></polygon> <polygon fill="#215F78" points="377.25,494.079 380.995,491.793 385.365,494.288 381.621,496.578 "></polygon> <polygon fill="#215F78" points="382.659,497.201 386.405,494.913 390.775,497.41 387.029,499.698 "></polygon> <polygon fill="#215F78" points="391.816,498.034 396.186,500.532 392.439,502.612 388.07,500.323 "></polygon> <polygon fill="#215F78" points="322.314,463.7 326.478,466.196 322.731,468.278 318.362,465.78 "></polygon> <polygon fill="#215F78" points="331.886,469.317 328.142,471.398 323.772,468.902 327.516,466.822 "></polygon> <polygon fill="#215F78" points="337.296,472.232 333.552,474.52 329.181,472.024 332.927,469.942 "></polygon> <polygon fill="#215F78" points="342.707,475.354 338.963,477.642 334.591,475.145 338.337,472.854 "></polygon> <polygon fill="#215F78" points="348.118,478.474 344.372,480.764 340.001,478.266 343.748,475.977 "></polygon> <polygon fill="#215F78" points="353.528,481.596 349.782,483.885 345.412,481.388 349.158,479.1 "></polygon> <polygon fill="#215F78" points="354.568,482.22 359.979,485.34 359.979,485.34 361.02,485.966 365.389,488.462 365.389,488.462 367.469,489.711 370.8,491.584 370.8,491.584 374.128,493.457 380.372,497.201 376.625,499.283 369.967,495.537 366.845,493.664 366.845,493.664 363.725,491.793 361.435,490.751 361.435,490.751 357.274,488.254 356.233,487.63 356.233,487.63 350.822,484.51 "></polygon> <polygon fill="#215F78" points="385.782,500.323 382.036,502.406 377.666,499.907 381.412,497.825 "></polygon> <polygon fill="#215F78" points="391.192,503.444 387.446,505.526 383.076,503.028 386.822,500.947 "></polygon> </g> <g> <polygon fill="#215F78" points="418.451,495.122 422.197,492.832 426.567,495.33 422.821,497.41 "></polygon> <polygon fill="#215F78" points="423.862,498.034 427.607,495.952 431.977,498.451 428.231,500.532 "></polygon> <polygon fill="#215F78" points="429.271,501.155 433.018,499.074 437.388,501.571 433.642,503.652 "></polygon> <polygon fill="#215F78" points="421.573,498.243 417.828,500.323 413.458,497.825 417.41,495.746 "></polygon> <polygon fill="#215F78" points="426.982,501.363 423.238,503.444 418.868,500.947 422.821,498.868 "></polygon> <polygon fill="#215F78" points="432.393,504.277 428.648,506.565 424.278,504.069 428.231,501.78 "></polygon> <polygon fill="#215F78" points="416.787,500.947 413.041,503.235 408.671,500.739 412.417,498.451 "></polygon> <polygon fill="#215F78" points="422.197,504.069 418.451,506.358 414.082,503.861 417.828,501.571 "></polygon> <polygon fill="#215F78" points="427.607,507.19 423.653,509.48 419.492,506.981 423.238,504.693 "></polygon> <polygon fill="#215F78" points="403.678,503.652 407.422,501.363 411.793,503.861 408.047,506.149 "></polygon> <polygon fill="#215F78" points="409.088,506.772 412.833,504.484 417.204,506.981 413.458,509.063 "></polygon> <polygon fill="#215F78" points="414.499,509.687 418.243,507.607 422.612,510.103 418.868,512.184 "></polygon> <polygon fill="#215F78" points="398.891,506.358 402.637,504.277 407.006,506.772 403.052,508.855 "></polygon> <polygon fill="#215F78" points="404.093,509.48 408.047,507.398 412.208,509.896 408.462,511.976 "></polygon> <polygon fill="#215F78" points="409.503,512.601 413.458,510.519 417.619,512.81 413.873,515.098 "></polygon> <polygon fill="#215F78" points="402.013,509.48 398.267,511.768 393.897,509.272 397.644,506.981 "></polygon> <polygon fill="#215F78" points="407.422,512.601 403.678,514.891 399.308,512.393 403.052,510.103 "></polygon> </g> </g> <g> <path fill="#215F78" d="M380.372,435.192l29.964-17.272c1.249-0.831,2.914-0.831,4.163,0l70.957,40.993 c1.248,0.626,1.248,2.499,0,3.122l-29.132,16.855c-1.458,0.832-3.331,0.832-4.787,0l-70.75-40.785 C379.331,437.272,379.331,435.815,380.372,435.192z"></path> <path fill="#06314B" d="M380.372,437.897l70.749,40.784c1.458,0.833,3.33,0.833,4.787,0l29.132-16.854 c0.625-0.415,0.832-1.041,0.832-1.458v3.538l0,0l0,0l0,0c0,0.625-0.207,1.249-0.832,1.458l-29.132,16.854 c-1.457,0.832-3.329,0.832-4.787,0l-70.749-40.785c-0.624-0.417-0.833-0.832-0.833-1.456l0,0v-3.537 C379.539,437.064,379.748,437.48,380.372,437.897z"></path> <path fill="#0B3B56" d="M380.372,437.897l70.749,40.784c0.625,0.418,1.458,0.626,2.29,0.626v3.537 c-0.832,0-1.458-0.208-2.29-0.625l-70.749-40.785c-0.624-0.417-0.833-0.832-0.833-1.456l0,0v-3.537 C379.539,437.064,379.748,437.48,380.372,437.897z"></path> </g> <g> <polygon fill="#0F4564" points="457.78,437.897 402.845,405.852 402.845,433.318 457.78,465.156 "></polygon> <polygon fill="#06314B" points="410.335,401.481 402.845,405.852 457.78,437.897 465.479,433.318 "></polygon> <polygon fill="#06314B" points="465.479,433.318 457.78,437.897 457.78,465.156 465.479,460.577 "></polygon> </g> <g> <g> <linearGradient id="SVGID_1_" gradientUnits="userSpaceOnUse" x1="-112.0137" y1="298.4824" x2="-66.9673" y2="446.6987" gradientTransform="matrix(1.1696 0 0 -1.1696 540.0869 797.9229)"> <stop offset="0" style="stop-color:#2075BC"></stop> <stop offset="0.2787" style="stop-color:#2378BC"></stop> <stop offset="0.5411" style="stop-color:#2E7FBC"></stop> <stop offset="0.7962" style="stop-color:#3F89BC"></stop> <stop offset="1" style="stop-color:#5495BD"></stop> </linearGradient> <polygon fill="url(#SVGID_1_)" points="347.076,267.057 514.588,364.234 514.588,487.422 347.076,389.829 "></polygon> <polygon fill="#06314B" points="514.588,364.234 519.998,360.696 519.998,484.093 514.588,487.422 "></polygon> <polygon fill="#215F78" points="347.076,267.057 352.904,263.727 519.998,360.696 514.588,364.234 "></polygon> </g> <path fill="#0B3B56" d="M347.076,267.057v122.772l167.512,97.384V364.026L347.076,267.057z M510.633,480.555L351.24,387.748 V274.132l159.393,92.599V480.555z"></path> </g> </g> <path fill="#FDD4BD" d="M285.067,419.169c-1.664,17.688-14.773,30.796-28.923,29.341c-14.358-1.456-24.347-16.854-22.683-34.336 c1.665-17.686,14.775-30.796,28.925-29.339C276.743,386.083,286.94,401.481,285.067,419.169z"></path> <path fill="#F4C6A3" d="M306.5,460.163c0,0,6.242,1.456,8.324,1.664c2.08,0.208,10.404,1.873,13.733,0.832 c3.329-1.04-2.914-3.12-4.37-4.369c-1.456-1.041-1.456-3.953,1.873-4.996c3.329-1.038,11.029-0.623,14.982-1.038 c3.954-0.625-3.953-12.694-10.613-13.941c-6.658-1.042-12.068-0.417-17.896,2.495c-5.617,2.707-8.739,7.491-11.236,8.324 L306.5,460.163z"></path> <path fill="#ED5762" d="M307.124,443.517l-42.45,10.612l-2.082,27.05l50.15-17.271 C313.784,454.544,307.124,443.517,307.124,443.517z"></path> <path fill="#ED5762" d="M202.457,454.959c0,0-11.653,14.775,0,35.168c0,0,8.115,11.444,30.796,0.208L202.457,454.959z"></path> <path fill="#DE4A5B" d="M237.207,437.688c0,0,18.311-1.247,32.669,8.739c0,0,1.041,2.914,3.955,4.994 c2.912,1.872,17.063,7.7,17.063,7.7s-6.244,83.442,0.833,124.228c0,0-31.007,24.139-79.282,0c0,0-7.075-102.586-10.197-128.182 C202.457,454.959,210.572,444.972,237.207,437.688z"></path> <g> <polygon fill="#BBCEE1" points="229.3,575.651 142.526,525.503 171.66,609.985 258.432,659.927 "></polygon> <polygon fill="#FFFFFF" points="152.1,520.093 142.526,525.503 229.3,575.651 238.871,570.034 "></polygon> <polygon fill="#A7BCCE" points="238.871,570.034 229.3,575.651 258.432,659.927 268.212,654.31 "></polygon> </g> <path fill="#F4C6A3" d="M363.516,497.201c0,0,4.785-4.786,6.451-6.034c1.872-1.456,8.116-7.282,11.653-8.115 c3.538-0.832-2.499,5.41-3.331,7.283c-0.833,1.873,3.746-1.457,7.075-2.705c3.538-1.247,7.284-1.041,11.445,0.417 c8.115,2.912,7.7,19.352,1.041,17.479c-11.028-3.12-16.023,5.618-22.472,7.492c-4.578,1.246-6.451,1.246-9.365,1.663 L363.516,497.201z"></path> <path fill="#ED5762" d="M290.894,459.122l35.791,47.443l37.247-11.028c0,0,7.907,9.989,5.41,20.81l-49.732,19.352l-40.368-44.322 C279.241,491.167,265.715,463.076,290.894,459.122z"></path> <path fill="#9E4E37" d="M270.917,369.644c0,0,2.705,6.659-10.404,8.323c-13.11,1.873-29.549,8.325-33.71,22.266 c-2.705,8.948,0.416,18.521,4.993,26.219c1.457,2.706,3.329,5.203,5.202,7.699c0,0,8.74,2.29,19.353-3.329 c0,0,6.451-4.37,10.405-12.693c0,0,7.907,3.328,10.195-3.329c1.873-4.787,7.492-6.036,10.612-8.531 C287.772,406.269,305.459,377.135,270.917,369.644z"></path> <g> <polygon fill="#BBCEE1" points="762.628,622.47 705.197,589.177 705.197,610.609 762.628,643.903 "></polygon> <polygon fill="#FFFFFF" points="764.502,555.05 705.197,589.177 762.628,622.47 821.935,588.345 "></polygon> <polygon fill="#A7BCCE" points="821.935,588.345 762.628,622.47 762.628,643.903 821.935,609.569 "></polygon> </g> <g> <polygon fill="#BBCEE1" points="762.628,587.305 705.197,554.011 705.197,575.444 762.628,608.737 "></polygon> <polygon fill="#FFFFFF" points="764.502,519.885 705.197,554.011 762.628,587.305 821.935,553.177 "></polygon> <polygon fill="#A7BCCE" points="821.935,553.177 762.628,587.305 762.628,608.737 821.935,574.402 "></polygon> </g> <g> <polygon fill="#BBCEE1" points="665.451,678.654 608.228,645.36 608.228,666.794 665.451,700.087 "></polygon> <polygon fill="#FFFFFF" points="667.532,611.234 608.228,645.36 665.451,678.654 724.965,644.529 "></polygon> <polygon fill="#A7BCCE" points="724.965,644.529 665.451,678.654 665.451,700.087 724.965,665.753 "></polygon> </g> <g> <polygon fill="#BBCEE1" points="665.451,643.488 608.228,610.193 608.228,631.627 665.451,664.922 "></polygon> <polygon fill="#FFFFFF" points="667.532,576.066 608.228,610.193 665.451,643.488 724.965,609.36 "></polygon> <polygon fill="#A7BCCE" points="724.965,609.36 665.451,643.488 665.451,664.922 724.965,630.585 "></polygon> </g> <g> <polygon fill="#BBCEE1" points="568.483,734.838 511.05,701.545 511.05,722.977 568.483,756.271 "></polygon> <polygon fill="#FFFFFF" points="570.354,667.418 511.05,701.545 568.483,734.838 627.788,700.712 "></polygon> <polygon fill="#A7BCCE" points="627.788,700.712 568.483,734.838 568.483,756.271 627.788,721.938 "></polygon> </g> <g> <polygon fill="#BBCEE1" points="568.483,699.673 511.05,666.377 511.05,688.019 568.483,721.105 "></polygon> <polygon fill="#FFFFFF" points="570.354,632.459 511.05,666.377 568.483,699.673 627.788,665.545 "></polygon> <polygon fill="#A7BCCE" points="627.788,665.545 568.483,699.673 568.483,721.105 627.788,686.77 "></polygon> </g> <g> <path fill="#2075BC" d="M586.377,678.654l-3.537-2.08c-2.496,1.039-5.41,1.665-8.53,2.08v2.914h-8.739v-2.914 c-2.914-0.415-5.828-1.041-8.533-2.08l-3.537,2.08l-6.243-3.538l3.538-2.079c-1.665-1.458-2.912-3.123-3.538-4.787h-4.993v-4.993 h4.993c0.624-1.667,1.665-3.33,3.538-4.995l-3.538-2.08l6.243-3.539l3.537,2.081c2.498-1.04,5.411-1.663,8.533-2.081v-2.911h8.739 v2.911c2.913,0.418,5.825,1.041,8.53,2.081l3.537-2.081l6.243,3.539l-3.537,2.08c1.664,1.457,2.913,3.122,3.537,4.995h4.995v4.993 h-4.995c-0.624,1.664-1.664,3.329-3.537,4.994l3.537,2.081L586.377,678.654z M561.824,670.331c4.578,2.497,11.861,2.497,16.231,0 c4.369-2.498,4.369-6.867,0-9.364c-4.579-2.497-11.862-2.497-16.231,0C557.245,663.464,557.245,667.833,561.824,670.331"></path> </g> <polygon fill="#EF4237" points="671.901,594.796 677.521,606.656 682.931,618.518 662.33,615.395 641.729,612.066 656.92,603.327 "></polygon> <g> <path fill="#91A6B7" d="M742.026,550.681c-3.12-1.873-1.663-4.37,4.163-7.908c2.912-1.663,5.411-2.704,7.908-3.12 c2.287-0.417,4.161-0.208,5.616,0.416c0.626,0.415,1.25,0.832,1.459,1.458c0.207,0.415,0.623,1.038,0.623,1.455l5.41-1.249 c-0.416-1.041-0.832-1.664-1.455-2.288c-0.626-0.625-1.458-1.249-2.291-1.873c-2.912-1.665-6.242-2.289-10.195-1.873 c-3.954,0.417-7.906,1.873-12.069,4.162c-4.161,2.496-6.658,4.786-7.281,6.867c-0.835,2.288,0.414,4.162,3.12,5.825 c1.872,1.041,3.954,1.874,6.034,2.08l4.161-2.494C745.358,551.93,743.484,551.513,742.026,550.681z"></path> <path fill="#91A6B7" d="M767.83,557.34c0.418-1.041,0.418-2.498,0-3.955c-0.416-1.246-0.624-2.081-0.416-2.704 c0.209-0.624,0.625-1.249,1.457-1.665c0.832-0.414,1.665-0.832,2.705-0.832c0.832,0,1.873,0.209,2.497,0.624 c0.625,0.417,1.249,0.831,1.664,1.457c0.417,0.416,0.626,1.039,0.834,1.457l5.409-1.248c-0.625-1.666-2.08-3.122-3.954-4.163 c-2.081-1.247-4.369-1.873-6.866-1.664c-2.498,0-4.786,0.623-7.074,1.872c-1.041,0.625-2.081,1.248-2.498,2.083 c-0.624,0.621-0.832,1.455-1.04,2.079c-0.208,0.832,0,1.664,0.416,2.704c0.416,1.248,0.416,2.291,0.416,2.914 c-0.207,0.832-0.624,1.249-1.457,1.871c-0.832,0.418-1.664,0.835-2.705,0.835s-1.873-0.209-2.912-0.835 c-1.667-0.83-2.705-2.288-3.33-4.159l-4.786,2.703c0.624,1.456,2.08,2.706,4.37,4.163c2.288,1.248,4.579,1.874,7.076,1.874 c2.495,0,4.992-0.835,7.282-2.082C766.374,559.213,767.414,558.379,767.83,557.34z"></path> <path fill="#91A6B7" d="M792.801,554.427c-2.079-1.25-4.37-1.874-6.866-1.665c-2.497,0-4.786,0.623-7.074,1.871 c-1.042,0.626-2.083,1.249-2.497,2.081c-0.626,0.626-0.833,1.456-1.041,2.082c-0.208,0.832,0,1.664,0.415,2.706 c0.417,1.249,0.417,2.288,0.417,2.912c-0.209,0.625-0.624,1.248-1.456,1.874c-0.832,0.415-1.664,0.831-2.706,0.831 c-1.04,0-1.872-0.208-2.913-0.831c-1.665-0.834-2.705-2.289-3.328-4.163l-4.787,2.705c0.624,1.458,2.081,2.706,4.37,3.952 c2.289,1.252,4.577,1.874,7.074,1.874c2.498,0,4.995-0.831,7.283-2.08c1.457-0.833,2.497-1.873,2.914-2.914 c0.415-1.039,0.415-2.497,0-3.954c-0.417-1.248-0.624-2.08-0.417-2.703c0.209-0.626,0.624-1.249,1.458-1.665 c0.832-0.417,1.664-0.833,2.705-0.833c0.832,0,1.871,0.207,2.496,0.624s1.248,0.833,1.665,1.457 c0.415,0.417,0.623,1.04,0.832,1.456l5.411-1.248C796.131,556.923,794.674,555.468,792.801,554.427z"></path> </g> <g> <g> <g> <path fill="#95CA57" d="M761.38,362.777l-55.768-32.254c-1.665-1.04-3.745-1.04-5.617,0.208l0,0l-12.279,7.075l5.619,7.7 l2.082,2.497v55.143c0,3.329,1.664,6.243,4.578,7.907l41.617,24.139l0.414,2.288l8.533,11.861l13.108-7.698l0,0l0,0l0,0 c1.25-0.834,2.083-2.082,2.083-3.538v-67.213C766.165,367.563,764.293,364.442,761.38,362.777z"></path> <path fill="#72C058" d="M748.27,370.476l-56.391-32.669c-2.705-1.665-6.242,0.416-6.242,3.538v67.419 c0,3.33,1.665,6.244,4.578,7.909l56.391,32.669c2.913,1.665,6.451-0.415,6.451-3.746v-67.211 C753.057,375.263,751.184,372.142,748.27,370.476z"></path> </g> </g> <g> <path fill="#BBCEE1" d="M750.976,449.551L750.976,449.551L750.976,449.551C750.767,449.551,750.976,449.551,750.976,449.551z"></path> <path fill="#54B848" d="M753.057,445.805v-67.212c0-1.041-0.209-2.29-0.624-3.33l13.109-7.491 c0.417,1.041,0.623,2.081,0.623,3.121v67.213c0,1.665-0.831,2.912-2.079,3.538l0,0l0,0l0,0l-12.902,7.698 C752.225,448.718,753.057,447.469,753.057,445.805z"></path> </g> </g> <g> <g> <g> <path fill="#8C64AB" d="M825.055,228.353l-55.767-32.254c-1.665-1.04-3.746-1.04-5.62,0.208l0,0l-12.275,7.075l5.618,7.699 l2.08,2.497v55.143c0,3.33,1.665,6.243,4.577,7.907l41.618,24.138l0.417,2.289l8.531,11.861l13.109-7.698l0,0l0,0l0,0 c1.249-0.833,2.081-2.082,2.081-3.538v-67.213C829.842,233.347,827.968,230.226,825.055,228.353z"></path> <path fill="#7F4D9E" d="M812.154,236.052l-56.393-32.461c-2.705-1.666-6.243,0.416-6.243,3.537v67.42 c0,3.33,1.665,6.243,4.579,7.907l56.391,32.67c2.914,1.665,6.451-0.416,6.451-3.746v-67.212 C816.731,240.838,815.066,237.716,812.154,236.052z"></path> </g> </g> <g> <path fill="#BBCEE1" d="M814.651,315.125L814.651,315.125L814.651,315.125C814.651,315.333,814.651,315.333,814.651,315.125z"></path> <path fill="#713D97" d="M816.731,311.588v-67.212c0-1.041-0.208-2.289-0.625-3.33l13.109-7.491 c0.417,1.041,0.626,2.08,0.626,3.122v67.212c0,1.664-0.832,2.913-2.081,3.537l0,0l0,0l0,0l-13.109,7.699 C815.898,314.5,816.731,313.252,816.731,311.588z"></path> </g> </g> <g> <g> <g> <path fill="#EEAACC" d="M638.815,229.393l-55.767-32.254c-1.665-1.041-3.746-1.041-5.619,0.208l0,0l-12.277,7.075l5.619,7.699 l2.082,2.498v55.143c0,3.329,1.664,6.243,4.576,7.907l41.619,24.139l0.414,2.289l8.534,11.861l13.108-7.7l0,0l0,0l0,0 c1.247-0.833,2.082-2.081,2.082-3.538v-67.213C643.394,234.179,641.729,231.058,638.815,229.393z"></path> <path fill="#E581B4" d="M625.706,237.092l-56.392-32.461c-2.704-1.664-6.241,0.416-6.241,3.538v67.421 c0,3.329,1.664,6.243,4.576,7.907l56.394,32.671c2.912,1.664,6.45-0.417,6.45-3.746v-67.212 C630.493,241.878,628.62,238.758,625.706,237.092z"></path> </g> </g> <g> <path fill="#BBCEE1" d="M628.412,316.167L628.412,316.167L628.412,316.167C628.203,316.167,628.203,316.167,628.412,316.167z"></path> <path fill="#CA6BAA" d="M630.493,312.628v-67.212c0-1.04-0.209-2.289-0.625-3.329l13.11-7.491 c0.415,1.04,0.623,2.081,0.623,3.121v67.212c0,1.665-0.831,2.913-2.08,3.538l0,0l0,0l0,0l-12.901,7.7 C629.661,315.542,630.493,314.085,630.493,312.628z"></path> </g> </g> <g> <g> <g> <path fill="#FBEB32" d="M516.669,99.13L460.9,67.085c-1.664-1.041-3.744-1.041-5.617,0.208l0,0l-12.278,7.075l5.619,7.7 l2.082,2.496v55.144c0,3.33,1.664,6.243,4.578,7.907l41.617,24.139l0.417,2.289l8.531,11.861l13.109-7.699l0,0l0,0l0,0 c1.249-0.832,2.081-2.082,2.081-3.538v-67.212C521.454,104.125,519.581,101.003,516.669,99.13z"></path> <path fill="#F4D017" d="M503.559,106.829l-56.391-32.461c-2.705-1.665-6.243,0.416-6.243,3.538v67.421 c0,3.329,1.665,6.242,4.579,7.907l56.39,32.669c2.914,1.666,6.452-0.416,6.452-3.745v-67.213 C508.346,111.615,506.473,108.494,503.559,106.829z"></path> </g> </g> <g> <path fill="#BBCEE1" d="M506.264,185.902L506.264,185.902L506.264,185.902C506.264,186.111,506.264,186.111,506.264,185.902z"></path> <path fill="#EAA222" d="M508.346,182.365v-67.212c0-1.04-0.209-2.288-0.624-3.329l13.109-7.492 c0.416,1.04,0.623,2.081,0.623,3.122v67.212c0,1.665-0.832,2.913-2.08,3.538l0,0l0,0l0,0l-12.901,7.699 C507.513,185.278,508.346,184.031,508.346,182.365z"></path> </g> </g> <path fill="#FFFFFF" d="M614.471,250.41c-3.329-5.826-7.908-10.404-12.486-13.109c-4.577-2.498-8.947-3.122-12.484-1.249 c-6.034,3.537-6.867,13.941-2.082,24.554l-15.397,8.74l4.37,7.699l15.397-8.739c2.914,4.162,6.451,7.283,9.988,9.364 c4.579,2.497,8.948,3.122,12.485,1.249C621.337,274.964,621.337,262.063,614.471,250.41z M610.1,271.218 c-2.289,1.25-4.994,0.833-7.906-0.833c-2.913-1.664-5.827-4.577-7.908-8.323c-4.37-7.491-4.37-15.814,0-18.312 c2.29-1.249,4.995-0.833,7.908,0.833c2.912,1.665,5.826,4.578,7.906,8.324C614.471,260.398,614.471,268.514,610.1,271.218z"></path> <g> <path fill="#7F4D9E" d="M458.821,112.656c0.833,0.417,1.665,1.249,2.497,2.081c0.832,0.832,1.664,1.665,2.496,2.705l1.665-3.537 c-2.289-2.497-4.37-4.37-6.658-5.618c-2.291-1.249-4.163-1.873-5.619-1.664c-1.665,0.207-2.914,1.04-3.746,2.496 c-0.832,1.457-1.247,3.746-1.247,6.45c0,4.371,0.833,8.116,2.705,11.445c1.665,3.329,4.37,6.035,7.699,7.908 c2.288,1.249,4.37,2.08,6.243,2.289v-4.578c-2.29-0.417-4.161-1.041-5.828-2.081c-3.744-2.289-5.826-6.242-5.617-12.069 c0-2.914,0.416-4.786,1.456-5.618C455.49,111.615,456.948,111.615,458.821,112.656z"></path> <polygon fill="#7F4D9E" points="477.549,123.477 474.012,121.604 474.012,128.47 467.976,125.141 467.976,129.095 474.012,132.424 474.012,139.499 477.34,141.372 477.34,134.505 483.583,138.043 483.583,134.089 477.549,130.551 "></polygon> <polygon fill="#7F4D9E" points="495.651,141.164 495.651,134.089 492.322,132.008 492.322,139.083 486.288,135.546 486.288,139.499 492.322,143.037 492.322,149.903 495.651,151.984 495.651,145.118 501.688,148.447 501.688,144.493 "></polygon> </g> <g> <path fill="#FFFFFF" d="M768.039,231.89c-0.625,0.625-0.833,1.873-0.833,3.745v8.116v0.208c0,1.456-0.416,2.289-1.455,2.497 c-1.041,0.208-2.291-0.416-4.163-1.456v5.618c1.872,1.04,3.122,2.289,4.163,3.538c1.039,1.248,1.455,2.705,1.455,4.37v7.907 c0,1.873,0.208,3.33,0.833,4.786c0.623,1.457,1.458,2.705,2.913,3.954c1.248,1.249,3.121,2.497,5.411,3.746v-5.411 c-1.458-0.833-2.497-1.873-3.123-2.704c-0.623-0.833-0.832-1.873-0.832-3.122v-7.699v-0.209c0-3.121-1.665-5.826-4.994-8.323 v-0.208c3.329,1.457,4.994,0.417,4.994-2.704v-7.7c0-1.249,0.209-1.873,0.832-2.289c0.626-0.208,1.458,0,3.123,0.832v-5.41 c-2.29-1.248-4.163-2.081-5.411-2.497C769.497,231.058,768.662,231.266,768.039,231.89z"></path> <path fill="#FFFFFF" d="M799.46,265.809c-1.04-1.249-1.458-2.705-1.458-4.162v-0.208v-8.115c0-2.705-0.623-4.786-2.079-6.659 c-1.458-1.873-3.746-3.746-7.284-5.827v5.411c1.457,0.832,2.497,1.873,3.122,2.705c0.624,0.833,0.833,1.873,0.833,3.122v7.699 c0,3.33,1.665,6.243,5.202,8.741v0.208c-1.665-0.624-2.914-0.833-3.746-0.416c-0.832,0.416-1.249,1.457-1.249,2.913v0.208v7.7 c0,1.249-0.207,2.081-0.833,2.289c-0.623,0.207-1.664,0-3.12-0.833v5.411c3.329,1.873,5.826,2.705,7.283,2.498 c1.457-0.208,2.08-1.665,2.08-4.37v-7.908c0-1.665,0.417-2.497,1.458-2.705c1.039-0.208,2.288,0.416,4.161,1.457v-5.618 C801.748,268.306,800.502,267.057,799.46,265.809z"></path> </g> <g> <polygon fill="#215F78" points="692.92,381.297 710.398,400.233 710.398,395.447 698.33,382.754 710.398,383.377 710.398,378.592 692.92,378.384 "></polygon> <polygon fill="#215F78" points="712.063,405.435 717.056,408.348 726.631,384.21 721.844,381.297 "></polygon> <polygon fill="#215F78" points="728.503,388.997 728.503,393.782 740.363,407.099 728.294,405.852 728.294,410.637 745.981,411.886 745.981,408.972 "></polygon> </g> <g> <g> <polygon fill="#F4D017" points="367.886,292.651 367.886,295.981 381.621,303.889 381.621,300.56 "></polygon> <polygon fill="#EEF0F9" points="367.886,298.687 367.886,301.808 381.621,309.715 381.621,306.593 "></polygon> <polygon fill="#EEF0F9" points="367.886,304.513 367.886,307.842 381.621,315.749 381.621,312.42 "></polygon> <polygon fill="#EEF0F9" points="471.513,373.598 471.513,370.268 386.822,321.368 386.822,324.697 "></polygon> <polygon fill="#EEF0F9" points="367.886,310.547 367.886,313.877 381.621,321.784 381.621,318.454 "></polygon> <polygon fill="#EEF0F9" points="367.886,316.581 367.886,319.704 381.621,327.818 381.621,324.489 "></polygon> <polygon fill="#72C058" points="471.513,379.633 471.513,376.303 386.822,327.402 386.822,330.732 "></polygon> <polygon fill="#EEF0F9" points="367.886,334.477 367.886,337.807 381.621,345.714 381.621,342.384 "></polygon> <polygon fill="#F4D017" points="367.886,340.512 367.886,343.633 381.621,351.541 381.621,348.419 "></polygon> <polygon fill="#EEF0F9" points="367.886,364.234 367.886,367.563 381.621,375.471 381.621,372.142 "></polygon> <polygon fill="#EEF0F9" points="367.886,370.268 367.886,373.598 381.621,381.504 381.621,378.176 "></polygon> <g> <polygon fill="#72C058" points="440.301,411.886 386.822,381.089 386.822,384.418 440.301,415.217 "></polygon> <polygon fill="#EEF0F9" points="443.005,413.551 443.005,416.881 471.513,433.318 471.513,429.99 "></polygon> </g> <g> <polygon fill="#EEF0F9" points="413.666,390.661 386.822,375.263 386.822,378.384 413.666,393.99 "></polygon> <polygon fill="#EEF0F9" points="416.37,392.325 416.37,395.447 471.513,427.285 471.513,423.956 "></polygon> </g> <polygon fill="#EEF0F9" points="464.231,401.897 464.231,405.226 471.513,409.39 471.513,406.061 "></polygon> <polygon fill="#ED5762" points="424.902,373.181 386.822,351.332 386.822,354.662 424.902,376.511 "></polygon> <polygon fill="#EEF0F9" points="409.295,316.581 386.822,303.473 386.822,306.801 409.295,319.704 "></polygon> <g> <polygon fill="#EEF0F9" points="446.127,337.807 412,318.038 412,321.368 446.127,340.928 "></polygon> </g> <polygon fill="#EEF0F9" points="426.358,332.188 402.429,318.454 402.429,321.784 426.358,335.518 "></polygon> <g> <polygon fill="#ED5762" points="451.329,346.755 429.063,333.854 429.063,337.182 451.329,350.083 "></polygon> <polygon fill="#EEF0F9" points="454.243,348.419 454.243,351.749 471.513,361.737 471.513,358.407 "></polygon> </g> <polygon fill="#ED5762" points="391.192,318.038 391.192,321.368 409.295,331.772 409.295,328.443 "></polygon> <polygon fill="#EEF0F9" points="464.438,360.28 412,330.107 412,333.438 464.438,363.61 "></polygon> <polygon fill="#EEF0F9" points="434.474,360.904 400.347,341.136 400.347,344.466 434.474,364.234 "></polygon> <polygon fill="#EEF0F9" points="464.438,378.176 437.179,362.569 437.179,365.69 464.438,381.504 "></polygon> <g> <polygon fill="#EEF0F9" points="461.525,394.407 427.607,374.847 427.607,378.176 461.525,397.527 "></polygon> </g> <polygon fill="#72C058" points="443.005,389.621 443.005,392.951 461.525,403.562 461.525,400.233 "></polygon> <polygon fill="#EEF0F9" points="393.48,361.112 386.822,357.367 386.822,360.488 393.48,364.442 "></polygon> <g> <polygon fill="#EEF0F9" points="405.757,368.188 405.757,371.517 440.301,391.286 440.301,388.165 "></polygon> <polygon fill="#EEF0F9" points="403.052,366.523 396.186,362.777 396.186,365.899 403.052,369.853 "></polygon> </g> <polygon fill="#EEF0F9" points="433.85,390.452 396.186,368.604 396.186,371.933 433.85,393.574 "></polygon> </g> <g> <polygon fill="#EEF0F9" points="477.549,355.911 477.549,356.743 481.295,359.031 481.295,357.991 "></polygon> <polygon fill="#EEF0F9" points="477.549,357.575 477.549,358.407 481.295,360.696 481.295,359.656 "></polygon> <polygon fill="#EEF0F9" points="477.549,359.24 477.549,360.073 481.295,362.153 481.295,361.321 "></polygon> <polygon fill="#EEF0F9" points="506.057,378.176 506.057,377.344 482.751,363.817 482.751,364.65 "></polygon> <polygon fill="#EEF0F9" points="477.549,360.904 477.549,361.737 481.295,363.817 481.295,362.985 "></polygon> <polygon fill="#EEF0F9" points="477.549,362.361 477.549,363.401 481.295,365.483 481.295,364.65 "></polygon> <polygon fill="#EEF0F9" points="506.057,379.84 506.057,379.008 482.751,365.483 482.751,366.315 "></polygon> <polygon fill="#EEF0F9" points="477.549,367.355 477.549,368.396 481.295,370.476 481.295,369.644 "></polygon> <polygon fill="#EEF0F9" points="477.549,369.021 477.549,369.853 481.295,372.142 481.295,371.31 "></polygon> <polygon fill="#EEF0F9" points="477.549,375.679 477.549,376.511 481.295,378.8 481.295,377.76 "></polygon> <polygon fill="#EEF0F9" points="477.549,377.344 477.549,378.176 481.295,380.257 481.295,379.424 "></polygon> <g> <polygon fill="#EEF0F9" points="497.318,388.788 482.751,380.257 482.751,381.089 497.318,389.621 "></polygon> <polygon fill="#EEF0F9" points="498.148,389.205 498.148,390.037 506.057,394.614 506.057,393.782 "></polygon> </g> <g> <polygon fill="#EEF0F9" points="490.034,382.961 482.751,378.592 482.751,379.424 490.034,383.794 "></polygon> <polygon fill="#EEF0F9" points="490.866,383.377 490.866,384.21 506.057,392.951 506.057,392.118 "></polygon> </g> <polygon fill="#EEF0F9" points="503.976,386.083 503.976,386.915 506.057,387.956 506.057,387.124 "></polygon> <polygon fill="#EEF0F9" points="493.154,378.176 482.751,372.142 482.751,372.974 493.154,379.008 "></polygon> <polygon fill="#EEF0F9" points="488.785,362.361 482.751,358.824 482.751,359.864 488.785,363.401 "></polygon> <g> <polygon fill="#EEF0F9" points="498.982,368.396 489.617,362.985 489.617,363.817 498.982,369.228 "></polygon> </g> <polygon fill="#EEF0F9" points="493.572,366.731 486.912,362.985 486.912,363.817 493.572,367.771 "></polygon> <g> <polygon fill="#EEF0F9" points="500.438,370.892 494.404,367.147 494.404,368.188 500.438,371.725 "></polygon> <polygon fill="#EEF0F9" points="501.271,371.31 501.271,372.142 506.057,374.847 506.057,374.014 "></polygon> </g> <polygon fill="#EEF0F9" points="483.792,362.777 483.792,363.817 488.785,366.731 488.785,365.69 "></polygon> <polygon fill="#EEF0F9" points="503.976,374.43 489.617,366.106 489.617,367.147 503.976,375.471 "></polygon> <polygon fill="#EEF0F9" points="495.859,374.638 486.288,369.228 486.288,370.061 495.859,375.679 "></polygon> <polygon fill="#EEF0F9" points="503.976,379.424 496.483,375.054 496.483,376.095 503.976,380.257 "></polygon> <g> <polygon fill="#EEF0F9" points="503.143,384.002 493.987,378.592 493.987,379.424 503.143,384.834 "></polygon> </g> <polygon fill="#EEF0F9" points="498.148,382.545 498.148,383.586 503.143,386.499 503.143,385.459 "></polygon> <polygon fill="#EEF0F9" points="484.415,374.638 482.751,373.598 482.751,374.638 484.415,375.679 "></polygon> <g> <polygon fill="#EEF0F9" points="487.953,376.719 487.953,377.551 497.318,383.17 497.318,382.13 "></polygon> <polygon fill="#EEF0F9" points="487.12,376.303 485.247,375.263 485.247,376.095 487.12,377.135 "></polygon> </g> <polygon fill="#EEF0F9" points="495.651,382.754 485.247,376.927 485.247,377.76 495.651,383.794 "></polygon> </g> <g> <polygon fill="#EEF0F9" points="477.549,383.794 477.549,384.626 481.295,386.708 481.295,385.875 "></polygon> <polygon fill="#EEF0F9" points="477.549,385.25 477.549,386.292 481.295,388.372 481.295,387.54 "></polygon> <polygon fill="#EEF0F9" points="477.549,386.915 477.549,387.956 481.295,390.037 481.295,389.205 "></polygon> <polygon fill="#EEF0F9" points="506.057,406.061 506.057,405.02 482.751,391.702 482.751,392.534 "></polygon> <polygon fill="#EEF0F9" points="477.549,388.581 477.549,389.621 481.295,391.702 481.295,390.87 "></polygon> <polygon fill="#EEF0F9" points="477.549,390.245 477.549,391.286 481.295,393.367 481.295,392.534 "></polygon> <polygon fill="#EEF0F9" points="506.057,407.725 506.057,406.684 482.751,393.367 482.751,394.198 "></polygon> <polygon fill="#EEF0F9" points="477.549,395.239 477.549,396.071 481.295,398.36 481.295,397.32 "></polygon> <polygon fill="#EEF0F9" points="477.549,396.904 477.549,397.736 481.295,400.025 481.295,398.984 "></polygon> <polygon fill="#EEF0F9" points="477.549,403.353 477.549,404.396 481.295,406.476 481.295,405.644 "></polygon> <polygon fill="#EEF0F9" points="477.549,405.02 477.549,406.061 481.295,408.142 481.295,407.308 "></polygon> <g> <polygon fill="#EEF0F9" points="497.318,416.673 482.751,408.142 482.751,408.972 497.318,417.505 "></polygon> <polygon fill="#EEF0F9" points="498.148,417.089 498.148,417.92 506.057,422.498 506.057,421.457 "></polygon> </g> <g> <polygon fill="#EEF0F9" points="490.034,410.637 482.751,406.476 482.751,407.308 490.034,411.679 "></polygon> <polygon fill="#EEF0F9" points="490.866,411.054 490.866,412.094 506.057,420.834 506.057,420.002 "></polygon> </g> <polygon fill="#EEF0F9" points="503.976,413.759 503.976,414.8 506.057,415.838 506.057,415.008 "></polygon> <polygon fill="#EEF0F9" points="493.154,405.852 482.751,399.817 482.751,400.858 493.154,406.893 "></polygon> <polygon fill="#EEF0F9" points="488.785,390.245 482.751,386.708 482.751,387.54 488.785,391.077 "></polygon> <g> <polygon fill="#EEF0F9" points="498.982,396.071 489.617,390.661 489.617,391.702 498.982,397.111 "></polygon> </g> <polygon fill="#EEF0F9" points="493.572,394.614 486.912,390.87 486.912,391.702 493.572,395.447 "></polygon> <g> <polygon fill="#EEF0F9" points="500.438,398.568 494.404,395.031 494.404,396.071 500.438,399.609 "></polygon> <polygon fill="#EEF0F9" points="501.271,398.984 501.271,400.025 506.057,402.73 506.057,401.897 "></polygon> </g> <polygon fill="#EEF0F9" points="483.792,390.661 483.792,391.702 488.785,394.407 488.785,393.574 "></polygon> <polygon fill="#EEF0F9" points="503.976,402.314 489.617,393.99 489.617,394.823 503.976,403.146 "></polygon> <polygon fill="#EEF0F9" points="495.859,402.523 486.288,397.111 486.288,397.944 495.859,403.353 "></polygon> <polygon fill="#EEF0F9" points="503.976,407.308 496.483,402.938 496.483,403.771 503.976,408.142 "></polygon> <g> <polygon fill="#EEF0F9" points="503.143,411.679 493.987,406.269 493.987,407.308 503.143,412.718 "></polygon> </g> <polygon fill="#EEF0F9" points="498.148,410.43 498.148,411.262 503.143,414.174 503.143,413.343 "></polygon> <polygon fill="#EEF0F9" points="484.415,402.523 482.751,401.481 482.751,402.314 484.415,403.562 "></polygon> <g> <polygon fill="#EEF0F9" points="487.953,404.604 487.953,405.435 497.318,410.845 497.318,410.013 "></polygon> <polygon fill="#EEF0F9" points="487.12,404.188 485.247,402.938 485.247,403.979 487.12,405.02 "></polygon> </g> <polygon fill="#EEF0F9" points="495.651,410.637 485.247,404.604 485.247,405.644 495.651,411.471 "></polygon> </g> <g> <polygon fill="#EEF0F9" points="477.549,411.471 477.549,412.51 481.295,414.591 481.295,413.759 "></polygon> <polygon fill="#EEF0F9" points="477.549,413.135 477.549,414.174 481.295,416.256 481.295,415.423 "></polygon> <polygon fill="#EEF0F9" points="477.549,414.8 477.549,415.632 481.295,417.92 481.295,417.089 "></polygon> <polygon fill="#EEF0F9" points="506.057,433.734 506.057,432.904 482.751,419.376 482.751,420.419 "></polygon> <polygon fill="#EEF0F9" points="477.549,416.464 477.549,417.297 481.295,419.584 481.295,418.546 "></polygon> <polygon fill="#EEF0F9" points="477.549,418.129 477.549,418.96 481.295,421.249 481.295,420.21 "></polygon> <polygon fill="#EEF0F9" points="506.057,435.398 506.057,434.568 482.751,421.042 482.751,422.083 "></polygon> <polygon fill="#EEF0F9" points="477.549,423.122 477.549,423.956 481.295,426.036 481.295,425.203 "></polygon> <polygon fill="#EEF0F9" points="477.549,424.786 477.549,425.62 481.295,427.701 481.295,426.868 "></polygon> <polygon fill="#EEF0F9" points="477.549,431.239 477.549,432.069 481.295,434.359 481.295,433.527 "></polygon> <polygon fill="#EEF0F9" points="477.549,432.904 477.549,433.734 481.295,436.024 481.295,435.192 "></polygon> <g> <polygon fill="#EEF0F9" points="497.318,444.347 482.751,435.815 482.751,436.856 497.318,445.39 "></polygon> <polygon fill="#EEF0F9" points="498.148,444.764 498.148,445.805 506.057,450.174 506.057,449.342 "></polygon> </g> <g> <polygon fill="#EEF0F9" points="490.034,438.521 482.751,434.359 482.751,435.192 490.034,439.354 "></polygon> <polygon fill="#EEF0F9" points="490.866,438.937 490.866,439.979 506.057,448.718 506.057,447.677 "></polygon> </g> <polygon fill="#EEF0F9" points="503.976,441.644 503.976,442.476 506.057,443.725 506.057,442.891 "></polygon> <polygon fill="#EEF0F9" points="493.154,433.734 482.751,427.701 482.751,428.532 493.154,434.568 "></polygon> <polygon fill="#EEF0F9" points="488.785,418.129 482.751,414.591 482.751,415.423 488.785,418.96 "></polygon> <g> <polygon fill="#EEF0F9" points="498.982,423.956 489.617,418.546 489.617,419.376 498.982,424.786 "></polygon> </g> <polygon fill="#EEF0F9" points="493.572,422.498 486.912,418.546 486.912,419.584 493.572,423.33 "></polygon> <g> <polygon fill="#EEF0F9" points="500.438,426.452 494.404,422.915 494.404,423.747 500.438,427.285 "></polygon> <polygon fill="#EEF0F9" points="501.271,426.868 501.271,427.701 506.057,430.613 506.057,429.573 "></polygon> </g> <polygon fill="#EEF0F9" points="483.792,418.546 483.792,419.376 488.785,422.292 488.785,421.457 "></polygon> <polygon fill="#EEF0F9" points="503.976,430.196 489.617,421.875 489.617,422.706 503.976,431.031 "></polygon> <polygon fill="#EEF0F9" points="495.859,430.405 486.288,424.995 486.288,425.829 495.859,431.239 "></polygon> <polygon fill="#EEF0F9" points="503.976,435.192 496.483,430.822 496.483,431.655 503.976,436.024 "></polygon> <g> <polygon fill="#EEF0F9" points="503.143,439.562 493.987,434.151 493.987,434.983 503.143,440.395 "></polygon> </g> <polygon fill="#EEF0F9" points="498.148,438.314 498.148,439.145 503.143,442.059 503.143,441.226 "></polygon> <polygon fill="#EEF0F9" points="484.415,430.405 482.751,429.366 482.751,430.196 484.415,431.239 "></polygon> <g> <polygon fill="#EEF0F9" points="487.953,432.278 487.953,433.318 497.318,438.729 497.318,437.897 "></polygon> <polygon fill="#EEF0F9" points="487.12,431.861 485.247,430.822 485.247,431.655 487.12,432.904 "></polygon> </g> <polygon fill="#EEF0F9" points="495.651,438.521 485.247,432.486 485.247,433.318 495.651,439.354 "></polygon> </g> <g> <polygon fill="#EEF0F9" points="477.549,439.354 477.549,440.188 481.295,442.476 481.295,441.644 "></polygon> <polygon fill="#EEF0F9" points="477.549,441.018 477.549,441.852 481.295,444.14 481.295,443.099 "></polygon> <polygon fill="#EEF0F9" points="477.549,442.682 477.549,443.517 481.295,445.805 481.295,444.764 "></polygon> <polygon fill="#EEF0F9" points="506.057,461.619 506.057,460.786 482.751,447.263 482.751,448.093 "></polygon> <polygon fill="#EEF0F9" points="477.549,444.347 477.549,445.181 481.295,447.469 481.295,446.428 "></polygon> <polygon fill="#EEF0F9" points="477.549,446.013 477.549,446.845 481.295,448.927 481.295,448.093 "></polygon> <polygon fill="#EEF0F9" points="506.057,463.285 506.057,462.45 482.751,448.927 482.751,449.757 "></polygon> <polygon fill="#EEF0F9" points="477.549,450.8 477.549,451.838 481.295,453.92 481.295,453.088 "></polygon> <polygon fill="#EEF0F9" points="477.549,452.464 477.549,453.503 481.295,455.584 481.295,454.753 "></polygon> <polygon fill="#EEF0F9" points="503.976,469.526 503.976,470.359 506.057,471.607 506.057,470.566 "></polygon> <polygon fill="#EEF0F9" points="493.154,461.619 482.751,455.584 482.751,456.417 493.154,462.45 "></polygon> <polygon fill="#EEF0F9" points="488.785,446.013 482.751,442.268 482.751,443.308 488.785,446.845 "></polygon> <g> <polygon fill="#EEF0F9" points="498.982,451.838 489.617,446.428 489.617,447.263 498.982,452.673 "></polygon> </g> <polygon fill="#EEF0F9" points="493.572,450.174 486.912,446.428 486.912,447.469 493.572,451.215 "></polygon> <g> <polygon fill="#EEF0F9" points="500.438,454.337 494.404,450.8 494.404,451.631 500.438,455.168 "></polygon> <polygon fill="#EEF0F9" points="501.271,454.753 501.271,455.584 506.057,458.29 506.057,457.457 "></polygon> </g> <polygon fill="#EEF0F9" points="483.792,446.428 483.792,447.263 488.785,450.174 488.785,449.134 "></polygon> <polygon fill="#EEF0F9" points="503.976,458.081 489.617,449.757 489.617,450.591 503.976,458.913 "></polygon> <polygon fill="#EEF0F9" points="495.859,458.081 486.288,452.673 486.288,453.711 495.859,459.122 "></polygon> <polygon fill="#EEF0F9" points="503.976,462.868 496.483,458.705 496.483,459.539 503.976,463.907 "></polygon> <g> <polygon fill="#EEF0F9" points="503.143,467.444 493.987,462.035 493.987,462.868 503.143,468.278 "></polygon> </g> <polygon fill="#EEF0F9" points="498.148,466.196 498.148,467.029 503.143,469.942 503.143,469.11 "></polygon> <polygon fill="#EEF0F9" points="484.415,458.29 482.751,457.249 482.751,458.081 484.415,459.122 "></polygon> <g> <polygon fill="#EEF0F9" points="487.953,460.163 487.953,460.995 497.318,466.614 497.318,465.573 "></polygon> <polygon fill="#EEF0F9" points="487.12,459.748 485.247,458.705 485.247,459.539 487.12,460.577 "></polygon> </g> <polygon fill="#EEF0F9" points="495.651,466.196 485.247,460.369 485.247,461.203 495.651,467.237 "></polygon> </g> <g> <path fill="#72C058" d="M359.146,287.658l-4.578-2.705c-0.208-0.208-0.417,0-0.417,0.208v5.411c0,0.208,0.208,0.417,0.417,0.625 l4.578,2.705c0.208,0.207,0.415,0,0.415-0.209v-5.41C359.562,288.074,359.355,287.658,359.146,287.658z"></path> <path fill="#72C058" d="M359.146,295.772l-4.578-2.705c-0.208-0.207-0.417,0-0.417,0.209v5.41c0,0.208,0.208,0.416,0.417,0.624 l4.578,2.705c0.208,0.208,0.415,0,0.415-0.208v-5.411C359.562,295.981,359.355,295.772,359.146,295.772z"></path> <path fill="#72C058" d="M359.146,303.889l-4.578-2.705c-0.208-0.208-0.417,0-0.417,0.208v5.41c0,0.208,0.208,0.417,0.417,0.625 l4.578,2.705c0.208,0.208,0.415,0,0.415-0.208v-5.41C359.562,304.097,359.355,303.889,359.146,303.889z"></path> <path fill="#72C058" d="M359.146,311.796l-4.578-2.706c-0.208-0.208-0.417,0-0.417,0.208v5.411c0,0.207,0.208,0.416,0.417,0.624 l4.578,2.705c0.208,0.208,0.415,0,0.415-0.208v-5.41C359.562,312.212,359.355,312.004,359.146,311.796z"></path> <path fill="#72C058" d="M359.146,319.911l-4.578-2.705c-0.208-0.208-0.417,0-0.417,0.208v5.41c0,0.208,0.208,0.417,0.417,0.625 l4.578,2.706c0.208,0.208,0.415,0,0.415-0.208v-5.411C359.562,320.327,359.355,320.12,359.146,319.911z"></path> <path fill="#72C058" d="M359.146,328.027l-4.578-2.706c-0.208-0.209-0.417,0-0.417,0.208v5.41c0,0.208,0.208,0.417,0.417,0.625 l4.578,2.705c0.208,0.207,0.415,0,0.415-0.208v-5.411C359.562,328.443,359.355,328.234,359.146,328.027z"></path> <path fill="#72C058" d="M359.146,336.143l-4.578-2.705c-0.208-0.208-0.417,0-0.417,0.208v5.41c0,0.209,0.208,0.416,0.417,0.625 l4.578,2.705c0.208,0.208,0.415,0,0.415-0.208v-5.41C359.562,336.559,359.355,336.35,359.146,336.143z"></path> <path fill="#72C058" d="M359.146,344.257l-4.578-2.705c-0.208-0.208-0.417,0-0.417,0.208v5.411c0,0.208,0.208,0.417,0.417,0.624 l4.578,2.706c0.208,0.208,0.415,0,0.415-0.208v-5.41C359.562,344.673,359.355,344.466,359.146,344.257z"></path> <path fill="#72C058" d="M359.146,352.373l-4.578-2.705c-0.208-0.207-0.417,0-0.417,0.208v5.411c0,0.208,0.208,0.416,0.417,0.624 l4.578,2.705c0.208,0.208,0.415,0,0.415-0.209v-5.409C359.562,352.789,359.355,352.581,359.146,352.373z"></path> <path fill="#72C058" d="M359.146,360.488l-4.578-2.705c-0.208-0.208-0.417,0-0.417,0.207v5.411c0,0.208,0.208,0.416,0.417,0.625 l4.578,2.705c0.208,0.208,0.415,0,0.415-0.208v-5.411C359.562,360.904,359.355,360.696,359.146,360.488z"></path> <path fill="#72C058" d="M359.146,368.604l-4.578-2.706c-0.208-0.208-0.417,0-0.417,0.208v5.41c0,0.209,0.208,0.417,0.417,0.625 l4.578,2.705c0.208,0.208,0.415,0,0.415-0.208v-5.411C359.562,369.021,359.355,368.604,359.146,368.604z"></path> <path fill="#72C058" d="M359.146,376.719l-4.578-2.705c-0.208-0.208-0.417,0-0.417,0.208v5.411c0,0.207,0.208,0.416,0.417,0.624 l4.578,2.705c0.208,0.208,0.415,0,0.415-0.207v-5.411C359.562,377.135,359.355,376.719,359.146,376.719z"></path> </g> </g> <g opacity="0.4"> <g> <polygon fill="#FFFFFF" points="571.604,316.374 571.604,319.495 585.337,327.402 585.337,324.281 "></polygon> <polygon fill="#FFFFFF" points="571.604,322.2 571.604,325.529 585.337,333.438 585.337,330.107 "></polygon> <polygon fill="#FFFFFF" points="571.604,328.234 571.604,331.564 585.337,339.471 585.337,336.143 "></polygon> <polygon fill="#FFFFFF" points="675.024,397.111 675.024,393.99 590.332,345.09 590.332,348.419 "></polygon> <polygon fill="#FFFFFF" points="571.604,334.27 571.604,337.391 585.337,345.298 585.337,342.177 "></polygon> <polygon fill="#FFFFFF" points="571.604,340.096 571.604,343.425 585.337,351.332 585.337,348.003 "></polygon> <polygon fill="#FFFFFF" points="675.024,403.146 675.024,399.817 590.332,351.125 590.332,354.246 "></polygon> <polygon fill="#FFFFFF" points="571.604,357.991 571.604,361.321 585.337,369.228 585.337,365.899 "></polygon> <polygon fill="#FFFFFF" points="571.604,364.026 571.604,367.355 585.337,375.263 585.337,371.933 "></polygon> <polygon fill="#FFFFFF" points="571.604,387.956 571.604,391.077 585.337,399.193 585.337,395.863 "></polygon> <polygon fill="#FFFFFF" points="571.604,393.782 571.604,397.111 585.337,405.02 585.337,401.688 "></polygon> <g> <polygon fill="#FFFFFF" points="643.811,435.607 590.332,404.811 590.332,407.934 643.811,438.937 "></polygon> <polygon fill="#FFFFFF" points="646.725,437.272 646.725,440.395 675.024,456.832 675.024,453.711 "></polygon> </g> <g> <polygon fill="#FFFFFF" points="617.175,414.174 590.332,398.777 590.332,402.105 617.175,417.505 "></polygon> <polygon fill="#FFFFFF" points="620.088,415.838 620.088,419.169 675.024,451.007 675.024,447.677 "></polygon> </g> <polygon fill="#FFFFFF" points="667.949,425.62 667.949,428.741 675.024,433.11 675.024,429.781 "></polygon> <polygon fill="#FFFFFF" points="628.412,396.904 590.332,374.847 590.332,378.176 628.412,400.233 "></polygon> <polygon fill="#FFFFFF" points="612.806,340.096 590.332,327.194 590.332,330.523 612.806,343.425 "></polygon> <g> <polygon fill="#FFFFFF" points="649.637,361.321 615.719,341.76 615.719,345.09 649.637,364.65 "></polygon> </g> <polygon fill="#FFFFFF" points="629.868,355.911 605.938,342.177 605.938,345.298 629.868,359.24 "></polygon> <g> <polygon fill="#FFFFFF" points="655.048,370.476 632.781,357.575 632.781,360.696 655.048,373.598 "></polygon> <polygon fill="#FFFFFF" points="657.752,371.933 657.752,375.263 675.024,385.25 675.024,381.922 "></polygon> </g> <polygon fill="#FFFFFF" points="594.91,341.76 594.91,344.882 612.806,355.287 612.806,352.165 "></polygon> <polygon fill="#FFFFFF" points="668.155,383.794 615.719,353.621 615.719,356.951 668.155,387.124 "></polygon> <polygon fill="#FFFFFF" points="637.983,384.418 603.858,364.858 603.858,367.979 637.983,387.748 "></polygon> <polygon fill="#FFFFFF" points="668.155,401.897 640.896,386.083 640.896,389.413 668.155,405.02 "></polygon> <g> <polygon fill="#FFFFFF" points="665.035,417.92 631.326,398.568 631.326,401.688 665.035,421.249 "></polygon> </g> <polygon fill="#FFFFFF" points="646.725,413.343 646.725,416.673 665.035,427.285 665.035,423.956 "></polygon> <polygon fill="#FFFFFF" points="596.989,384.626 590.332,380.881 590.332,384.21 596.989,387.956 "></polygon> <g> <polygon fill="#FFFFFF" points="609.476,391.909 609.476,395.031 643.811,415.008 643.811,411.679 "></polygon> <polygon fill="#FFFFFF" points="606.563,390.245 599.903,386.292 599.903,389.621 606.563,393.574 "></polygon> </g> <polygon fill="#FFFFFF" points="637.567,413.967 599.903,392.325 599.903,395.655 637.567,417.297 "></polygon> </g> </g> <g opacity="0.4"> <g> <polygon fill="#FFFFFF" points="697.705,111.824 697.705,114.944 711.439,122.852 711.439,119.73 "></polygon> <polygon fill="#FFFFFF" points="697.705,117.65 697.705,120.979 711.439,128.886 711.439,125.558 "></polygon> <polygon fill="#FFFFFF" points="697.705,123.685 697.705,127.014 711.439,134.921 711.439,131.591 "></polygon> <polygon fill="#FFFFFF" points="801.334,192.77 801.334,189.44 716.642,140.539 716.642,143.869 "></polygon> <polygon fill="#FFFFFF" points="697.705,129.719 697.705,132.841 711.439,140.748 711.439,137.626 "></polygon> <polygon fill="#FFFFFF" points="697.705,135.546 697.705,138.875 711.439,146.782 711.439,143.453 "></polygon> <polygon fill="#FFFFFF" points="801.334,198.596 801.334,195.266 716.642,146.574 716.642,149.695 "></polygon> <polygon fill="#FFFFFF" points="697.705,153.441 697.705,156.771 711.439,164.678 711.439,161.349 "></polygon> <polygon fill="#FFFFFF" points="697.705,159.476 697.705,162.805 711.439,170.712 711.439,167.383 "></polygon> <polygon fill="#FFFFFF" points="697.705,183.405 697.705,186.735 711.439,194.643 711.439,191.313 "></polygon> <polygon fill="#FFFFFF" points="697.705,189.44 697.705,192.561 711.439,200.469 711.439,197.348 "></polygon> <g> <polygon fill="#FFFFFF" points="769.911,231.058 716.642,200.261 716.642,203.591 769.911,234.387 "></polygon> <polygon fill="#FFFFFF" points="772.825,232.723 772.825,235.844 801.334,252.283 801.334,249.161 "></polygon> </g> <g> <polygon fill="#FFFFFF" points="743.484,209.833 716.642,194.226 716.642,197.556 743.484,212.955 "></polygon> <polygon fill="#FFFFFF" points="746.189,211.289 746.189,214.619 801.334,246.456 801.334,243.127 "></polygon> </g> <polygon fill="#FFFFFF" points="794.05,221.069 794.05,224.399 801.334,228.56 801.334,225.231 "></polygon> <polygon fill="#FFFFFF" points="754.721,192.354 716.642,170.295 716.642,173.625 754.721,195.683 "></polygon> <polygon fill="#FFFFFF" points="739.115,135.546 716.642,122.645 716.642,125.974 739.115,138.875 "></polygon> <g> <polygon fill="#FFFFFF" points="775.945,156.771 741.82,137.21 741.82,140.539 775.945,160.099 "></polygon> </g> <polygon fill="#FFFFFF" points="755.971,151.36 732.04,137.626 732.04,140.748 755.971,154.689 "></polygon> <g> <polygon fill="#FFFFFF" points="781.148,165.926 758.882,153.024 758.882,156.354 781.148,169.047 "></polygon> <polygon fill="#FFFFFF" points="784.062,167.591 784.062,170.712 801.334,180.701 801.334,177.372 "></polygon> </g> <polygon fill="#FFFFFF" points="721.011,137.21 721.011,140.332 739.115,150.735 739.115,147.614 "></polygon> <polygon fill="#FFFFFF" points="794.259,179.452 741.82,149.071 741.82,152.401 794.259,182.574 "></polygon> <polygon fill="#FFFFFF" points="764.293,180.076 729.959,160.308 729.959,163.429 764.293,183.197 "></polygon> <polygon fill="#FFFFFF" points="794.259,197.348 766.997,181.533 766.997,184.862 794.259,200.469 "></polygon> <g> <polygon fill="#FFFFFF" points="791.136,213.371 757.427,194.019 757.427,197.139 791.136,216.699 "></polygon> </g> <polygon fill="#FFFFFF" points="772.825,208.792 772.825,212.122 791.136,222.734 791.136,219.405 "></polygon> <polygon fill="#FFFFFF" points="723.299,180.076 716.642,176.331 716.642,179.66 723.299,183.405 "></polygon> <g> <polygon fill="#FFFFFF" points="735.578,187.359 735.578,190.689 769.911,210.457 769.911,207.128 "></polygon> <polygon fill="#FFFFFF" points="732.872,185.695 726.005,181.741 726.005,185.07 732.872,189.024 "></polygon> </g> <polygon fill="#FFFFFF" points="763.668,209.417 726.005,187.775 726.005,191.105 763.668,212.746 "></polygon> </g> </g> <path fill="#0F4564" d="M449.664,531.12c0,0-7.699-3.537-16.854,2.497c-9.156,6.035-15.191,14.358-11.445,17.479 c3.746,3.122,10.821,6.452,15.605,4.786C441.549,554.427,464.646,540.691,449.664,531.12z"></path> <g> <polygon fill="#ED5762" points="641.521,495.537 569.73,536.322 523.953,509.687 595.742,469.11 "></polygon> <g> <polygon fill="#F0CFC9" points="583.673,535.282 583.673,536.945 655.672,495.746 655.672,494.497 "></polygon> <polygon fill="#FFFBF1" points="655.672,494.497 583.673,535.282 537.894,508.855 609.893,468.069 "></polygon> <polygon fill="#F5DDD8" points="583.673,535.282 583.673,536.945 537.894,510.311 537.894,508.855 "></polygon> </g> <polygon fill="#DFBAB8" points="609.269,472.439 636.943,488.254 635.904,489.086 608.228,473.063 "></polygon> <polygon fill="#DFBAB8" points="606.563,474.104 634.239,489.92 632.99,490.751 605.313,474.728 "></polygon> <polygon fill="#DFBAB8" points="599.695,477.85 637.983,499.907 636.735,500.532 598.656,478.474 "></polygon> <polygon fill="#DFBAB8" points="597.198,479.308 635.278,501.363 634.03,501.988 595.951,479.93 "></polygon> <polygon fill="#DFBAB8" points="594.493,480.764 632.572,502.82 631.326,503.444 593.245,481.388 "></polygon> <polygon fill="#DFBAB8" points="591.788,482.22 630.075,504.277 628.829,504.9 590.747,483.052 "></polygon> <polygon fill="#DFBAB8" points="589.291,483.885 627.371,505.734 626.123,506.565 588.044,484.51 "></polygon> <polygon fill="#DFBAB8" points="586.586,485.34 624.666,507.398 623.418,508.021 585.337,485.966 "></polygon> <polygon fill="#DFBAB8" points="583.881,486.798 622.169,508.855 620.92,509.48 582.633,487.422 "></polygon> <polygon fill="#DFBAB8" points="581.384,488.254 619.463,510.311 618.217,510.936 580.135,488.878 "></polygon> <polygon fill="#DFBAB8" points="578.68,489.711 616.759,511.768 615.511,512.393 577.43,490.542 "></polygon> <polygon fill="#DFBAB8" points="575.974,491.376 614.054,513.225 613.013,514.057 574.725,492 "></polygon> <polygon fill="#DFBAB8" points="573.477,492.832 611.557,514.891 610.308,515.513 572.228,493.457 "></polygon> <polygon fill="#DFBAB8" points="570.771,494.288 608.851,516.347 607.604,516.971 569.522,494.913 "></polygon> <polygon fill="#DFBAB8" points="568.066,495.746 606.146,517.802 605.105,518.428 566.817,496.369 "></polygon> <polygon fill="#DFBAB8" points="565.57,497.201 603.649,519.259 602.4,519.885 564.321,498.034 "></polygon> <polygon fill="#DFBAB8" points="562.864,498.868 600.944,520.717 599.695,521.548 561.615,499.49 "></polygon> </g> <g> <path fill="#A7BCCE" d="M531.859,519.259H525.2v7.283h6.659c2.497,0,4.579,2.081,4.579,4.578v11.861 c0,2.497-2.082,4.576-4.579,4.576h-9.779v7.284h9.779c6.45,0,11.86-5.203,11.86-11.86V531.12 C543.513,524.46,538.31,519.259,531.859,519.259z"></path> <path fill="#BBCEE1" d="M529.154,515.307v40.784c0,6.243-9.365,11.445-21.018,11.445c-11.653,0-21.017-5.202-21.017-11.445 v-40.784H529.154z"></path> <path fill="#FFFFFF" d="M487.12,515.307c0,6.241,9.363,11.444,21.017,11.444c11.652,0,21.018-5.203,21.018-11.444 c0-6.243-9.365-11.445-21.018-11.445C496.483,503.861,487.12,508.855,487.12,515.307z"></path> <path fill="#A7BCCE" d="M491.281,515.098c0,4.995,7.492,8.947,16.855,8.947c9.364,0,16.854-3.952,16.854-8.947 s-7.49-8.948-16.854-8.948C498.773,506.149,491.281,510.103,491.281,515.098z"></path> <path fill="#9E4E37" d="M508.137,511.976c-7.282,0-13.733,2.498-16.022,6.035c2.29,3.537,8.532,6.034,16.022,6.034 c7.283,0,13.734-2.497,16.022-6.034C521.871,514.474,515.629,511.976,508.137,511.976z"></path> <path fill="#A7BCCE" d="M516.044,525.919v40.784c4.163-0.832,7.7-2.497,9.988-4.578V521.34 C523.744,523.213,520.207,524.877,516.044,525.919z"></path> </g> </g> <g> </g> <g> </g> <g> </g> <g> </g> <g> </g> <g> </g> </svg> 